<?xml version="1.0" encoding="UTF-8"?>
<svg version="1.1" xmlns="http://www.w3.org/2000/svg" width="500" height="175">
<path d="M0 0 C0 -0.66 0 -1.32 0 -2 C10.89 -2 21.78 -2 33 -2 C40.0678925 15.30727523 47.08238203 32.63212173 54 50 C54.4532666 48.92218262 54.9065332 47.84436523 55.37353516 46.73388672 C57.0839967 42.66695463 58.79508583 38.60028682 60.50634766 34.53369141 C61.2415402 32.78636562 61.9765711 31.03897181 62.71142578 29.29150391 C63.77852713 26.75404463 64.84624437 24.21684521 65.9140625 21.6796875 C66.23307526 20.92074188 66.55208801 20.16179626 66.88076782 19.37985229 C69.88753147 12.23861113 72.94751113 5.12247403 76 -2 C93.49 -2 110.98 -2 129 -2 C129.33 5.26 129.66 12.52 130 20 C131.010625 18.63875 132.02125 17.2775 133.0625 15.875 C140.39470448 6.54177558 150.30777942 -0.64044554 162.26953125 -2.75390625 C179.5988807 -4.31577895 194.8728762 -2.73258901 208.6875 8.6875 C215.89911553 15.39568687 220.08200017 23.41000086 222 33 C222 39.6 222 46.2 222 53 C201.21 53.33 180.42 53.66 159 54 C162.33414103 59.55690172 164.64591956 61.62741932 170.87109375 63.58984375 C181.98319775 65.73070782 190.63105276 62.76677705 200 57 C200.81984375 57.89203125 201.6396875 58.7840625 202.484375 59.703125 C203.57287192 60.88545786 204.66141608 62.06774723 205.75 63.25 C206.55824219 64.12978516 206.55824219 64.12978516 207.3828125 65.02734375 C207.91132813 65.60097656 208.43984375 66.17460938 208.984375 66.765625 C209.49806641 67.32701172 210.01175781 67.88839844 210.54101562 68.46679688 C212.1123297 70.16175863 212.1123297 70.16175863 214.453125 72.171875 C216 74 216 74 215.99609375 76.03125 C212.79866157 82.35088067 204.88821649 85.94951538 198.5078125 88.22265625 C181.54002444 93.48214196 163.01459497 92.27745423 147.0625 84.3125 C139.72080147 79.94956 134.3692681 74.2821135 130 67 C129.67 74.26 129.34 81.52 129 89 C118.11 89 107.22 89 96 89 C95.67 69.53 95.34 50.06 95 30 C83.81345535 56.26195871 83.81345535 56.26195871 73.12109375 82.72753906 C71.09436925 87.90563075 71.09436925 87.90563075 70 89 C67.47905924 89.08847743 64.98569107 89.11527301 62.46484375 89.09765625 C61.33496788 89.09553383 61.33496788 89.09553383 60.18226624 89.09336853 C57.7673044 89.08775376 55.35243399 89.07519883 52.9375 89.0625 C51.30403779 89.0574869 49.67057414 89.05292366 48.03710938 89.04882812 C44.02470415 89.03777954 40.01236759 89.02050506 36 89 C35.55084229 87.88439697 35.10168457 86.76879395 34.63891602 85.61938477 C32.97726147 81.49415885 31.31226635 77.37028829 29.64624023 73.24682617 C28.92461909 71.45943611 28.20391355 69.67167612 27.48413086 67.88354492 C26.45144316 65.31852777 25.41550717 62.75484401 24.37890625 60.19140625 C24.05596085 59.3872377 23.73301544 58.58306915 23.40028381 57.75453186 C22.13758693 54.1112209 22.13758693 54.1112209 20 51 C19.79697266 52.05574219 19.79697266 52.05574219 19.58984375 53.1328125 C16.2057276 68.65516564 8.70549315 81.88714814 -4.25 91.375 C-17.56085437 99.56081953 -33.90426507 102.27963808 -49.125 98.875 C-62.45325958 95.04667012 -72.53738658 87.94369781 -81 77 C-81.33 80.96 -81.66 84.92 -82 89 C-92.56 89 -103.12 89 -114 89 C-114.03738281 85.35066406 -114.07476562 81.70132813 -114.11328125 77.94140625 C-114.15956079 74.38674096 -114.21077121 70.83217829 -114.26245117 67.27758789 C-114.29559912 64.81703994 -114.32366222 62.3564178 -114.34643555 59.89575195 C-114.38016755 56.34815003 -114.43249428 52.80122176 -114.48828125 49.25390625 C-114.49467117 48.1629213 -114.5010611 47.07193634 -114.50764465 45.94789124 C-114.62545387 39.75572967 -114.90664108 33.52722479 -118 28 C-122.8167258 25.5444143 -127.86633511 25.39638054 -133 27 C-136.29894256 28.82060848 -138.52313297 30.97691463 -140.13818359 34.44189453 C-141.37349643 39.54202179 -141.35835013 44.51110217 -141.4140625 49.7421875 C-141.43342865 50.86569611 -141.4527948 51.98920471 -141.4727478 53.14675903 C-141.53235875 56.72276298 -141.57885548 60.29879943 -141.625 63.875 C-141.66319674 66.30470126 -141.70224946 68.73438923 -141.7421875 71.1640625 C-141.83965048 77.10930445 -141.91936746 83.05441077 -142 89 C-152.56 89 -163.12 89 -174 89 C-174.04898438 85.555625 -174.09796875 82.11125 -174.1484375 78.5625 C-174.20251778 75.20975572 -174.25979762 71.85708022 -174.31738281 68.50439453 C-174.35555792 66.182507 -174.39043038 63.86056265 -174.421875 61.53857422 C-174.46777501 58.19217685 -174.52572829 54.84616685 -174.5859375 51.5 C-174.59748871 50.4694751 -174.60903992 49.4389502 -174.62094116 48.37719727 C-174.76205715 41.41423533 -174.91507299 34.88210498 -179.125 29.0625 C-182.77529968 26.44380675 -185.53411502 25.70340422 -190 26 C-193.56975163 27.11188985 -196.07316866 28.13708806 -198.8125 30.6875 C-202.31792228 37.51384865 -202.32819736 44.78350919 -202.4140625 52.28125 C-202.43342865 53.33534058 -202.4527948 54.38943115 -202.4727478 55.47546387 C-202.53216164 58.81689557 -202.57877562 62.15836244 -202.625 65.5 C-202.66321494 67.77605605 -202.70226869 70.05209819 -202.7421875 72.328125 C-202.83939828 77.8853411 -202.91927067 83.44242267 -203 89 C-213.56 89 -224.12 89 -235 89 C-235 58.97 -235 28.94 -235 -2 C-224.77 -2 -214.54 -2 -204 -2 C-203.67 0.31 -203.34 2.62 -203 5 C-202.35933594 4.59007813 -201.71867187 4.18015625 -201.05859375 3.7578125 C-199.76115234 2.94957031 -199.76115234 2.94957031 -198.4375 2.125 C-197.59058594 1.59132813 -196.74367187 1.05765625 -195.87109375 0.5078125 C-186.61402698 -4.35372189 -174.6166978 -4.49044678 -164.5625 -1.9375 C-157.98630438 0.38416366 -152.7994647 5.0651272 -148 10 C-147.7628125 9.40316406 -147.525625 8.80632813 -147.28125 8.19140625 C-143.85897587 2.33806544 -135.22928289 -0.86294773 -128.890625 -2.52734375 C-118.47998277 -4.22962444 -107.47862165 -4.02755745 -98 1 C-92.09884379 5.25432192 -88.00947117 9.32724283 -85 16 C-84.30777344 15.07380859 -84.30777344 15.07380859 -83.6015625 14.12890625 C-61.87780132 -14.07763742 -29.74222656 -19.82815104 0 0 Z M159.5625 27.5 C157.75496372 30.10604849 157.75496372 30.10604849 157 34 C168.55 34 180.1 34 192 34 C188.19031071 26.38062143 186.72842289 23.57614096 179 21 C171.14013005 20.05433517 165.12859606 21.79118353 159.5625 27.5 Z " fill="#EA6018" transform="translate(259,47)"/>
<path d="M0 0 C5.11280275 1.84060899 8.10397971 4.40043837 11 9 C11.9856742 13.78266266 11.49607519 17.07627378 9.1875 21.375 C7.52697382 23.36763142 5.92596844 25.2666284 4 27 C4.99 27.66 5.98 28.32 7 29 C8.32 28.01 9.64 27.02 11 26 C17.66828676 31.74969623 17.66828676 31.74969623 18.8125 36.0625 C17.94103648 39.2131758 17.40434422 39.743492 15.0625 41.8125 C12.26771813 44.294579 11.60603781 45.77217367 11.375 49.5 C11.33503906 50.26570313 11.29507813 51.03140625 11.25390625 51.8203125 C10.8422529 55.3541982 9.3125034 57.37499614 7 60 C3.52954666 62.28734425 1.42097915 62.98466777 -2.75390625 63.13671875 C-8.15593633 63.75821865 -10.73248812 67.08663091 -14.1875 71 C-21.13398235 78.71325253 -21.13398235 78.71325253 -26 79 C-26.598125 79.350625 -27.19625 79.70125 -27.8125 80.0625 C-31.21216398 81.51949885 -34.41362943 81.65449593 -38 81 C-41.65535247 79.27564269 -44.2612159 77.15635771 -46.4375 73.75 C-47.26837778 69.68793084 -47.92964179 66.09856672 -47 62 C-44.98956462 58.97181305 -42.6483899 56.47948748 -40 54 C-40.99 53.01 -41.98 52.02 -43 51 C-44.65 51.66 -46.3 52.32 -48 53 C-48.66 52.34 -49.32 51.68 -50 51 C-50.20753906 51.53109375 -50.41507813 52.0621875 -50.62890625 52.609375 C-52.64044222 57.22159973 -54.46424166 60.16379043 -59.07421875 62.375 C-63.91493917 63.94602488 -67.7045502 63.65994613 -72.3125 61.3125 C-75.79804291 58.31331191 -77.65226072 56.30667054 -78.3515625 51.66796875 C-78.60360769 47.2439124 -78.55392019 44.02457105 -75.6875 40.5 C-72.33502537 37.38141894 -70.31747608 35.71145529 -65.75 35.6875 C-65.02296875 35.67074219 -64.2959375 35.65398437 -63.546875 35.63671875 C-60.07593147 36.13180732 -57.1930072 37.58806733 -54 39 C-53.53503616 38.52171249 -53.07007233 38.04342499 -52.59101868 37.55064392 C-47.75856918 32.58568542 -42.90530886 27.64179129 -38.03930664 22.7097168 C-36.22493458 20.86512956 -34.41597843 19.01519908 -32.61254883 17.15991211 C-30.02261593 14.49738423 -27.41395366 11.85454136 -24.80078125 9.21484375 C-23.99538406 8.37847885 -23.18998688 7.54211395 -22.36018372 6.68040466 C-21.21956734 5.53910851 -21.21956734 5.53910851 -20.0559082 4.37475586 C-19.39194534 3.69746933 -18.72798248 3.0201828 -18.04389954 2.32237244 C-16 1 -16 1 -13.36369324 1.34767151 C-12.58367447 1.56293991 -11.8036557 1.77820831 -11 2 C-10.38125 1.690625 -9.7625 1.38125 -9.125 1.0625 C-5.96178009 -0.51910995 -3.49201666 -0.30103592 0 0 Z " fill="#C44A0A" transform="translate(257,59)"/>
<path d="M0 0 C5.11280275 1.84060899 8.10397971 4.40043837 11 9 C11.9856742 13.78266266 11.49607519 17.07627378 9.1875 21.375 C7.52697382 23.36763142 5.92596844 25.2666284 4 27 C4.99 27.66 5.98 28.32 7 29 C8.32 28.01 9.64 27.02 11 26 C17.66828676 31.74969623 17.66828676 31.74969623 18.8125 36.0625 C17.94103648 39.2131758 17.40434422 39.743492 15.0625 41.8125 C12.26771813 44.294579 11.60603781 45.77217367 11.375 49.5 C11.33503906 50.26570313 11.29507813 51.03140625 11.25390625 51.8203125 C10.8422529 55.3541982 9.3125034 57.37499614 7 60 C3.52954666 62.28734425 1.42097915 62.98466777 -2.75390625 63.13671875 C-8.15593633 63.75821865 -10.73248812 67.08663091 -14.1875 71 C-21.13398235 78.71325253 -21.13398235 78.71325253 -26 79 C-26.598125 79.350625 -27.19625 79.70125 -27.8125 80.0625 C-31.21216398 81.51949885 -34.41362943 81.65449593 -38 81 C-41.65535247 79.27564269 -44.2612159 77.15635771 -46.4375 73.75 C-47.26837778 69.68793084 -47.92964179 66.09856672 -47 62 C-44.98956462 58.97181305 -42.6483899 56.47948748 -40 54 C-40.99 53.01 -41.98 52.02 -43 51 C-44.65 51.66 -46.3 52.32 -48 53 C-48.66 52.34 -49.32 51.68 -50 51 C-50.20753906 51.53109375 -50.41507813 52.0621875 -50.62890625 52.609375 C-52.64044222 57.22159973 -54.46424166 60.16379043 -59.07421875 62.375 C-63.91493917 63.94602488 -67.7045502 63.65994613 -72.3125 61.3125 C-75.79804291 58.31331191 -77.65226072 56.30667054 -78.3515625 51.66796875 C-78.60360769 47.2439124 -78.55392019 44.02457105 -75.6875 40.5 C-72.33502537 37.38141894 -70.31747608 35.71145529 -65.75 35.6875 C-65.02296875 35.67074219 -64.2959375 35.65398437 -63.546875 35.63671875 C-60.07593147 36.13180732 -57.1930072 37.58806733 -54 39 C-53.53503616 38.52171249 -53.07007233 38.04342499 -52.59101868 37.55064392 C-47.75856918 32.58568542 -42.90530886 27.64179129 -38.03930664 22.7097168 C-36.22493458 20.86512956 -34.41597843 19.01519908 -32.61254883 17.15991211 C-30.02261593 14.49738423 -27.41395366 11.85454136 -24.80078125 9.21484375 C-23.99538406 8.37847885 -23.18998688 7.54211395 -22.36018372 6.68040466 C-21.21956734 5.53910851 -21.21956734 5.53910851 -20.0559082 4.37475586 C-19.39194534 3.69746933 -18.72798248 3.0201828 -18.04389954 2.32237244 C-16 1 -16 1 -13.36369324 1.34767151 C-12.58367447 1.56293991 -11.8036557 1.77820831 -11 2 C-10.38125 1.690625 -9.7625 1.38125 -9.125 1.0625 C-5.96178009 -0.51910995 -3.49201666 -0.30103592 0 0 Z M-18.6875 6.375 C-20.2094457 7.91117258 -20.2094457 7.91117258 -20 10 C-20.55042969 10.22429687 -21.10085937 10.44859375 -21.66796875 10.6796875 C-24.72583148 12.41093976 -26.84821826 14.62237725 -29.3125 17.125 C-30.04641968 17.86858765 -30.04641968 17.86858765 -30.79516602 18.62719727 C-34.01278966 21.91284004 -37.05105625 25.30978785 -40.03125 28.80859375 C-44.46654433 33.74549875 -49.27384037 38.34368509 -54 43 C-53.36578125 43.27585938 -52.7315625 43.55171875 -52.078125 43.8359375 C-49.30455568 45.3895534 -48.93392216 47.04257982 -48 50 C-47.01 49.34 -46.02 48.68 -45 48 C-40.00406513 48.48925109 -37.09128455 52.27960529 -33.6875 55.625 C-32.70040039 56.53185547 -32.70040039 56.53185547 -31.69335938 57.45703125 C-29.87815047 59.23620153 -28.34312523 60.84042118 -27 63 C-27.08203125 66.9609375 -27.08203125 66.9609375 -28 70 C-26.68 70.33 -25.36 70.66 -24 71 C-23.67 72.32 -23.34 73.64 -23 75 C-19.87734607 73.61222556 -17.74701311 71.99953492 -15.33300781 69.59179688 C-14.63258362 68.897677 -13.93215942 68.20355713 -13.21051025 67.48840332 C-12.46557312 66.73941772 -11.72063599 65.99043213 -10.953125 65.21875 C-10.18192322 64.44946167 -9.41072144 63.68017334 -8.6161499 62.88757324 C-6.98984871 61.26263173 -5.36606524 59.63516701 -3.74462891 58.00537109 C-1.25253732 55.50254825 1.25006592 53.01059437 3.75390625 50.51953125 C5.33137112 48.94074532 6.90821577 47.36133939 8.484375 45.78125 C9.23740906 45.0322644 9.99044312 44.28327881 10.76629639 43.51159668 C11.45411194 42.81747681 12.14192749 42.12335693 12.85058594 41.40820312 C13.46029236 40.79690552 14.06999878 40.18560791 14.69818115 39.55578613 C16.21391128 38.0824569 16.21391128 38.0824569 16 36 C15.360625 35.525625 14.72125 35.05125 14.0625 34.5625 C12 33 12 33 11 30 C9.76056641 30.46599609 9.76056641 30.46599609 8.49609375 30.94140625 C4.48068464 31.00870361 3.99301053 30.57368854 1.09765625 28.02734375 C-0.26580249 26.68247159 -1.61039151 25.31825484 -2.9375 23.9375 C-3.63423828 23.26783203 -4.33097656 22.59816406 -5.04882812 21.90820312 C-6.92084619 20.01031314 -8.56277022 18.24592175 -10 16 C-9.94140625 12.50390625 -9.94140625 12.50390625 -9 10 C-9.825 9.54625 -10.65 9.0925 -11.5 8.625 C-12.325 8.08875 -13.15 7.5525 -14 7 C-14 6.34 -14 5.68 -14 5 C-16.97517573 4.68416352 -16.97517573 4.68416352 -18.6875 6.375 Z " fill="#070200" transform="translate(257,59)"/>
<path d="M0 0 C3.83261883 3.24939423 6.59568366 6.23560454 7.3359375 11.296875 C7.43233984 17.35094189 6.71572898 22.07978395 3 27 C-3.92491492 32.51166698 -10.41167415 32.73092135 -19 32 C-24.39310965 30.44462041 -27.94686218 27.76289499 -31 23 C-32.93795159 17.18614524 -33.02055692 11.07891224 -30.3125 5.5625 C-22.10799553 -3.52897793 -10.94960168 -6.02467167 0 0 Z " fill="#EB6520" transform="translate(384,5)"/>
<path d="M0 0 C3.15204981 1.39347376 5.26171773 3.02485079 7.671875 5.4765625 C8.33574219 6.146875 8.99960938 6.8171875 9.68359375 7.5078125 C10.70646484 8.55582031 10.70646484 8.55582031 11.75 9.625 C12.44738281 10.33140625 13.14476562 11.0378125 13.86328125 11.765625 C15.58012488 13.50598703 17.29211832 15.25084981 19 17 C17.39202068 20.95769636 14.65047346 23.68905756 11.6953125 26.67578125 C11.17492401 27.20519821 10.65453552 27.73461517 10.11837769 28.28007507 C9.01996594 29.39295341 7.91875652 30.50307652 6.81494141 31.6105957 C5.12537057 33.31212681 3.45534885 35.03142393 1.78515625 36.75195312 C0.71469409 37.83187272 -0.35688322 38.91068831 -1.4296875 39.98828125 C-1.92773895 40.50586502 -2.42579041 41.02344879 -2.93893433 41.55671692 C-6.42264842 44.99573763 -6.42264842 44.99573763 -9.11645508 45.015625 C-12.94589326 42.95075619 -15.76644244 39.74499816 -18.8125 36.6875 C-19.51826172 36.01009766 -20.22402344 35.33269531 -20.95117188 34.63476562 C-21.61310547 33.97541016 -22.27503906 33.31605469 -22.95703125 32.63671875 C-23.56522705 32.03561279 -24.17342285 31.43450684 -24.80004883 30.81518555 C-26 29 -26 29 -26.03808594 27.13891602 C-24.46486714 23.8973897 -21.9856911 21.61977139 -19.43359375 19.140625 C-18.88010757 18.59138367 -18.3266214 18.04214233 -17.75636292 17.47625732 C-15.99033441 15.72699536 -14.21415308 13.98846356 -12.4375 12.25 C-11.23694559 11.064495 -10.0370674 9.87830476 -8.83789062 8.69140625 C-5.89970905 5.78626707 -2.95237926 2.89070663 0 0 Z " fill="#010000" transform="translate(242,76)"/>
<path d="M0 0 C3.59281994 1.98550576 6.52558721 4.61367441 8.375 8.3125 C8.94531437 12.98720792 8.81341751 16.43566498 6.6875 20.6875 C2.92219793 24.96162668 0.17202011 26.48827136 -5.5 26.875 C-10.39003463 26.74342956 -12.86282417 25.23880873 -16.34765625 21.91796875 C-19.05539137 18.51466865 -18.96027605 14.75090858 -18.90625 10.59765625 C-18.33766263 5.9778839 -15.80815203 3.27181246 -12.3125 0.4375 C-8.06639162 -1.33994072 -4.41121193 -1.15531741 0 0 Z " fill="#050100" transform="translate(197.625,59.6875)"/>
<path d="M0 0 C4.53015072 1.89634216 7.31129981 4.92853971 10 9 C10.8818547 13.12905801 10.24937854 16.3174903 8.8125 20.25 C6.68513679 23.4777235 5.42632321 25.14407493 2 27 C-2.66177592 27.83709908 -7.00636297 28.11183604 -11.234375 25.75390625 C-14.20037832 23.29653573 -15.76584527 21.70246418 -17 18 C-17.36617651 12.41580827 -17.2546741 8.77352202 -14 4 C-9.2696145 -0.18034068 -6.05537964 -0.67281996 0 0 Z " fill="#040100" transform="translate(227,41)"/>
<path d="M0 0 C1.98 1.32 3.96 2.64 6 4 C5.54483813 8.28830192 2.81866691 10.48406069 -0.1640625 13.28125 C-1.21378666 14.29792419 -2.26325832 15.31485914 -3.3125 16.33203125 C-4.9719791 17.92302235 -6.63526082 19.50972659 -8.30371094 21.09130859 C-9.91373155 22.62305772 -11.50817441 24.16973379 -13.1015625 25.71875 C-13.60668365 26.18865356 -14.11180481 26.65855713 -14.63223267 27.1427002 C-16.19778105 28.6167595 -16.19778105 28.6167595 -18 31 C-17.98815477 35.87967157 -13.41344736 39.09952127 -10.1875 42.3125 C-9.24293945 43.29959961 -9.24293945 43.29959961 -8.27929688 44.30664062 C-7.66505859 44.92345703 -7.05082031 45.54027344 -6.41796875 46.17578125 C-5.57915161 47.02523315 -5.57915161 47.02523315 -4.72338867 47.8918457 C-3.04482641 49.2357056 -3.04482641 49.2357056 -0.92700195 48.71166992 C-0.29109131 48.47681885 0.34481934 48.24196777 1 48 C2.33333333 47.66666667 3.66666667 47.33333333 5 47 C5 47.66 5 48.32 5 49 C3 50.625 3 50.625 1 52 C1.495 54.97 1.495 54.97 2 58 C2.66 58 3.32 58 4 58 C3.1875 59.9375 3.1875 59.9375 2 62 C1.01 62.33 0.02 62.66 -1 63 C-1.66 61.35 -2.32 59.7 -3 58 C-3.99 58 -4.98 58 -6 58 C-5.68675781 57.01 -5.37351563 56.02 -5.05078125 55 C-4.67365054 52.34199885 -4.81125677 51.29976435 -6.25927734 49 C-8.14598553 46.88449036 -10.11911905 44.93804462 -12.1875 43 C-12.87392578 42.30777344 -13.56035156 41.61554688 -14.26757812 40.90234375 C-16.96271842 38.23389371 -16.96271842 38.23389371 -20 36 C-22.05998267 36.2554741 -22.05998267 36.2554741 -24 37 C-24.99 37 -25.98 37 -27 37 C-27.12375 36.071875 -27.12375 36.071875 -27.25 35.125 C-27.80115872 32.81418662 -27.80115872 32.81418662 -30.046875 31.8671875 C-31.01367188 31.43792969 -31.01367188 31.43792969 -32 31 C-31.23707642 30.24493164 -31.23707642 30.24493164 -30.45874023 29.47460938 C-28.11559272 27.15248022 -25.77653398 24.8262723 -23.4375 22.5 C-22.23770508 21.31277344 -22.23770508 21.31277344 -21.01367188 20.1015625 C-16.60050321 15.70640676 -12.40452297 11.26641388 -8.49243164 6.41601562 C-7 5 -7 5 -4 5 C-3.01 6.485 -3.01 6.485 -2 8 C-1.01 8 -0.02 8 1 8 C0.505 7.1028125 0.505 7.1028125 0 6.1875 C-1 4 -1 4 -1 1 C-0.67 0.67 -0.34 0.34 0 0 Z " fill="#CE4D0A" transform="translate(235,71)"/>
<path d="M0 0 C5.41543537 1.08308707 5.81188089 1.38516751 8.8125 5.5625 C9.41707031 6.38878906 10.02164062 7.21507812 10.64453125 8.06640625 C11.09183594 8.70449219 11.53914063 9.34257812 12 10 C12.33 6.7 12.66 3.4 13 0 C14.32 0 15.64 0 17 0 C17 6.6 17 13.2 17 20 C11.80869384 18.96173877 11.26624409 18.74065446 8.1875 14.9375 C7.28064453 13.83728516 7.28064453 13.83728516 6.35546875 12.71484375 C5.90816406 12.14894531 5.46085937 11.58304688 5 11 C4.67 13.97 4.34 16.94 4 20 C2.68 20 1.36 20 0 20 C0 13.4 0 6.8 0 0 Z " fill="#EE8149" transform="translate(317,154)"/>
<path d="M0 0 C4.62 0 9.24 0 14 0 C14 1.65 14 3.3 14 5 C10.7 5 7.4 5 4 5 C4 5.99 4 6.98 4 8 C6.97 8 9.94 8 13 8 C13 9.65 13 11.3 13 13 C10.03 13 7.06 13 4 13 C4 13.99 4 14.98 4 16 C7.63 16 11.26 16 15 16 C15 17.32 15 18.64 15 20 C10.05 20 5.1 20 0 20 C0 13.4 0 6.8 0 0 Z " fill="#ED8E5D" transform="translate(281,154)"/>
<path d="M0 0 C3.465 1.98 3.465 1.98 7 4 C5.41588094 7.8826895 2.77134362 10.51864365 -0.15625 13.421875 C-0.65918579 13.92672424 -1.16212158 14.43157349 -1.68029785 14.95172119 C-2.74029986 16.01307997 -3.80281488 17.07193419 -4.86767578 18.12841797 C-6.50140046 19.75139124 -8.12413294 21.38481068 -9.74609375 23.01953125 C-10.77800476 24.05012146 -11.81053559 25.08009152 -12.84375 26.109375 C-13.33025024 26.59992371 -13.81675049 27.09047241 -14.31799316 27.59588623 C-17.77005651 31 -17.77005651 31 -20 31 C-21.7143618 29.04072937 -23.38405168 27.04119788 -25 25 C-23.68 24.01 -22.36 23.02 -21 22 C-21 22.66 -21 23.32 -21 24 C-19.02 24.66 -17.04 25.32 -15 26 C-15.60183749 23.97954558 -16.27306096 21.97888961 -17 20 C-17.66 19.67 -18.32 19.34 -19 19 C-17.68 18.01 -16.36 17.02 -15 16 C-13.68 17.32 -12.36 18.64 -11 20 C-11 16.89448334 -11.5393715 15.64738916 -13 13 C-12.01 12.34 -11.02 11.68 -10 11 C-9.566875 11.474375 -9.13375 11.94875 -8.6875 12.4375 C-6.97690387 14.23686957 -6.97690387 14.23686957 -4 15 C-5.07401108 12.08482708 -5.77810176 10.22189824 -8 8 C-6.68 7.01 -5.36 6.02 -4 5 C-4 5.66 -4 6.32 -4 7 C-2.02 7.66 -0.04 8.32 2 9 C1.39816251 6.97954558 0.72693904 4.97888961 0 3 C-0.66 2.67 -1.32 2.34 -2 2 C-1.34 1.34 -0.68 0.68 0 0 Z " fill="#CE4D0A" transform="translate(266,91)"/>
<path d="M0 0 C2.23046875 -0.02734375 2.23046875 -0.02734375 5 1 C6.8536259 3.6212341 8.0526504 6.49466345 9.3125 9.4375 C9.67150391 10.22705078 10.03050781 11.01660156 10.40039062 11.83007812 C13 17.63834821 13 17.63834821 13 20 C11.35 20 9.7 20 8 20 C7.67 18.68 7.34 17.36 7 16 C4.03 16 1.06 16 -2 16 C-2.33 17.32 -2.66 18.64 -3 20 C-4.65 20 -6.3 20 -8 20 C-7.35014905 15.28629244 -5.48438608 11.42313556 -3.4375 7.1875 C-2.9434668 6.14819336 -2.9434668 6.14819336 -2.43945312 5.08789062 C-1.63127749 3.38955052 -0.81631623 1.69444231 0 0 Z M2 7 C1.34 8.65 0.68 10.3 0 12 C1.32 12 2.64 12 4 12 C3.67 10.35 3.34 8.7 3 7 C2.67 7 2.34 7 2 7 Z " fill="#EF9769" transform="translate(211,154)"/>
<path d="M0 0 C1.32 0 2.64 0 4 0 C4 2.64 4 5.28 4 8 C6.97 8 9.94 8 13 8 C13 5.36 13 2.72 13 0 C14.32 0 15.64 0 17 0 C17 6.6 17 13.2 17 20 C15.68 20 14.36 20 13 20 C13 17.69 13 15.38 13 13 C10.03 13 7.06 13 4 13 C4 15.31 4 17.62 4 20 C2.68 20 1.36 20 0 20 C0 13.4 0 6.8 0 0 Z " fill="#ED8149" transform="translate(166,154)"/>
<path d="M0 0 C1.65 0 3.3 0 5 0 C5.6708712 1.6232687 6.33657029 3.24867578 7 4.875 C7.556875 6.23238281 7.556875 6.23238281 8.125 7.6171875 C9 10 9 10 9 12 C9.66 12 10.32 12 11 12 C11.19335938 11.38511719 11.38671875 10.77023438 11.5859375 10.13671875 C11.84632813 9.32847656 12.10671875 8.52023438 12.375 7.6875 C12.63023437 6.88699219 12.88546875 6.08648437 13.1484375 5.26171875 C14 3 14 3 16 0 C17.32 0 18.64 0 20 0 C19.45318976 5.00600922 17.75859667 8.97181067 15.4375 13.375 C15.10814453 14.01566406 14.77878906 14.65632812 14.43945312 15.31640625 C13.63360518 16.88138632 12.81781507 18.44124021 12 20 C9.73828125 19.9921875 9.73828125 19.9921875 7 19 C5.2989295 16.55835382 4.27432636 13.88405146 3.1875 11.125 C2.87619141 10.39152344 2.56488281 9.65804687 2.24414062 8.90234375 C0.96340975 5.81170089 0 3.37476683 0 0 Z " fill="#F0905F" transform="translate(241,154)"/>
<path d="M0 0 C0.33 0.66 0.66 1.32 1 2 C3.36186139 3.26145768 3.36186139 3.26145768 6 4 C6.99 3.67 7.98 3.34 9 3 C9.18820313 3.67289062 9.37640625 4.34578125 9.5703125 5.0390625 C11.5995484 9.24168766 14.5919986 12.10537132 17.875 15.375 C18.50019531 16.02855469 19.12539062 16.68210937 19.76953125 17.35546875 C20.37925781 17.96777344 20.98898438 18.58007812 21.6171875 19.2109375 C22.17003418 19.77087402 22.72288086 20.33081055 23.29248047 20.90771484 C24.95902818 22.23474045 24.95902818 22.23474045 27.07080078 21.70947266 C27.70743652 21.47534668 28.34407227 21.2412207 29 21 C30.33333333 20.66666667 31.66666667 20.33333333 33 20 C33 20.66 33 21.32 33 22 C31 23.625 31 23.625 29 25 C29.495 27.97 29.495 27.97 30 31 C30.66 31 31.32 31 32 31 C31.1875 32.9375 31.1875 32.9375 30 35 C29.01 35.33 28.02 35.66 27 36 C26.34 34.35 25.68 32.7 25 31 C24.01 31 23.02 31 22 31 C22.31324219 30.01 22.62648437 29.02 22.94921875 28 C23.32634946 25.34199885 23.18874323 24.29976435 21.74072266 22 C19.85401447 19.88449036 17.88088095 17.93804462 15.8125 16 C15.12607422 15.30777344 14.43964844 14.61554688 13.73242188 13.90234375 C11.03728158 11.23389371 11.03728158 11.23389371 8 9 C5.94001733 9.2554741 5.94001733 9.2554741 4 10 C3.01 10 2.02 10 1 10 C0.87625 9.071875 0.87625 9.071875 0.75 8.125 C0.18741541 5.81562433 0.18741541 5.81562433 -2.0625 4.75 C-2.701875 4.5025 -3.34125 4.255 -4 4 C-2.68 2.68 -1.36 1.36 0 0 Z " fill="#D7510B" transform="translate(207,98)"/>
<path d="M0 0 C2.37255699 1.39080927 2.99098974 2.44860371 3.8125 5.0625 C3.6875 7.1875 3.6875 7.1875 2.8125 9.0625 C0.53649002 10.50397299 -1.62086266 11.20695422 -4.1875 12.0625 C-6.375 10.625 -6.375 10.625 -8.1875 9.0625 C-7.69718723 4.64968505 -4.71037618 0.13458218 0 0 Z " fill="#D4500A" transform="translate(216.1875,90.9375)"/>
<path d="M0 0 C3.78496138 1.51398455 4.0072198 2.0144396 6 6 C3.69 8.31 1.38 10.62 -1 13 C-4 12 -4 12 -6 9 C-5.88995011 5.6985033 -4.73748807 4.71827988 -2.4375 2.25 C-1.633125 1.5075 -0.82875 0.765 0 0 Z " fill="#C84B0A" transform="translate(241,117)"/>
<path d="M0 0 C1.32 2.31 2.64 4.62 4 7 C3.0479279 8.00596297 2.08812654 9.00461563 1.125 10 C0.59132812 10.556875 0.05765625 11.11375 -0.4921875 11.6875 C-2 13 -2 13 -4 13 C-4.103125 12.236875 -4.20625 11.47375 -4.3125 10.6875 C-5.04364039 7.82940576 -5.76951913 6.84257115 -8 5 C-3.375 0 -3.375 0 0 0 Z " fill="#DB520B" transform="translate(223,85)"/>
<path d="M0 0 C1.14626322 0.97866338 2.29199788 1.95794587 3.4375 2.9375 C4.07558594 3.48277344 4.71367187 4.02804688 5.37109375 4.58984375 C6.26991149 5.36795695 7.15936528 6.15936528 8 7 C8.04080783 8.99958364 8.04254356 11.00045254 8 13 C7.34 12.67 6.68 12.34 6 12 C6 11.34 6 10.68 6 10 C5.360625 9.7525 4.72125 9.505 4.0625 9.25 C2 8 2 8 1.25 5.875 C1.12625 4.946875 1.12625 4.946875 1 4 C-0.32 4.33 -1.64 4.66 -3 5 C-1.125 1.125 -1.125 1.125 0 0 Z " fill="#170901" transform="translate(267,85)"/>
<path d="M0 0 C0.33 1.32 0.66 2.64 1 4 C2.98 4 4.96 4 7 4 C7 4.33 7 4.66 7 5 C5.88625 5.0825 4.7725 5.165 3.625 5.25 C-0.05753944 5.57873787 -0.05753944 5.57873787 -1.4375 8.0625 C-1.7159375 9.0215625 -1.7159375 9.0215625 -2 10 C-2.99 10 -3.98 10 -5 10 C-4.56802365 5.2482602 -3.67230705 3.07999946 0 0 Z " fill="#EB6926" transform="translate(209,163)"/>
<path d="M0 0 C2 1.375 2 1.375 4 3 C4 3.66 4 4.32 4 5 C4.66 5 5.32 5 6 5 C5.34 6.32 4.68 7.64 4 9 C3.01 8.67 2.02 8.34 1 8 C0.29788106 6.34795544 -0.36971413 4.68076231 -1 3 C-1.66 2.67 -2.32 2.34 -3 2 C-2.01 1.34 -1.02 0.68 0 0 Z " fill="#E0540B" transform="translate(224,82)"/>
<path d="M0 0 C1.98 1.65 3.96 3.3 6 5 C5.34 6.32 4.68 7.64 4 9 C3.34 9 2.68 9 2 9 C2 8.34 2 7.68 2 7 C1.01 6.67 0.02 6.34 -1 6 C-1 5.34 -1 4.68 -1 4 C-1.66 3.67 -2.32 3.34 -3 3 C-2.01 2.01 -1.02 1.02 0 0 Z " fill="#DD530B" transform="translate(250,107)"/>
<path d="M0 0 C0.33 0.66 0.66 1.32 1 2 C1.99 2.33 2.98 2.66 4 3 C4 3.66 4 4.32 4 5 C4.66 5 5.32 5 6 5 C5.34 6.32 4.68 7.64 4 9 C3.34 9 2.68 9 2 9 C0.2856382 7.04072937 -1.38405168 5.04119788 -3 3 C-2.01 2.01 -1.02 1.02 0 0 Z " fill="#DC520B" transform="translate(261,96)"/>
<path d="M0 0 C-1.58667578 3.90285767 -4.13350481 6.33520982 -7.125 9.25 C-8.03507813 10.14203125 -8.94515625 11.0340625 -9.8828125 11.953125 C-10.58148438 12.62859375 -11.28015625 13.3040625 -12 14 C-12 10.2814858 -11.14087832 9.68195394 -8.6875 7 C-7.76517578 5.9790625 -7.76517578 5.9790625 -6.82421875 4.9375 C-6.22222656 4.298125 -5.62023437 3.65875 -5 3 C-4.47019531 2.4225 -3.94039062 1.845 -3.39453125 1.25 C-2 0 -2 0 0 0 Z " fill="#EE8955" transform="translate(190,47)"/>
<path d="M0 0 C2.97 1.98 2.97 1.98 6 4 C5.67 5.32 5.34 6.64 5 8 C4.01 8 3.02 8 2 8 C-0.1875 5 -0.1875 5 -2 2 C-1.34 1.34 -0.68 0.68 0 0 Z " fill="#E5560B" transform="translate(235,71)"/>
<path d="M0 0 C0.66 0.33 1.32 0.66 2 1 C-1.72346836 5.42094803 -5.29521038 9.57833482 -10 13 C-8.56501627 9.79111679 -6.78256013 7.42193016 -4.4375 4.8125 C-3.81746094 4.11769531 -3.19742187 3.42289063 -2.55859375 2.70703125 C-1.72141231 1.79011824 -0.8779528 0.8779528 0 0 Z " fill="#F19C70" transform="translate(400,54)"/>
<path d="M0 0 C1.32 0 2.64 0 4 0 C3.25 5.75 3.25 5.75 1 8 C0.67 7.01 0.34 6.02 0 5 C-0.66 5 -1.32 5 -2 5 C-1.34 3.35 -0.68 1.7 0 0 Z " fill="#F2A67F" transform="translate(257,154)"/>
<path d="M0 0 C0 1.98 0 3.96 0 6 C-1.65 6.66 -3.3 7.32 -5 8 C-4.6875 5.125 -4.6875 5.125 -4 2 C-1 0 -1 0 0 0 Z " fill="#ED7639" transform="translate(258,158)"/>
<path d="M0 0 C0.66 0.66 1.32 1.32 2 2 C1.7578125 4.3828125 1.7578125 4.3828125 1.125 7.125 C0.92132813 8.03507812 0.71765625 8.94515625 0.5078125 9.8828125 C0.34023438 10.58148438 0.17265625 11.28015625 0 12 C-0.33 12 -0.66 12 -1 12 C-1 9.69 -1 7.38 -1 5 C-1.66 5 -2.32 5 -3 5 C-2.67 3.68 -2.34 2.36 -2 1 C-1.34 1.33 -0.68 1.66 0 2 C0 1.34 0 0.68 0 0 Z " fill="#F4C1A6" transform="translate(278,92)"/>
<path d="M0 0 C1.32 0.66 2.64 1.32 4 2 C4 3.32 4 4.64 4 6 C2.0625 5.6875 2.0625 5.6875 0 5 C-0.33 4.01 -0.66 3.02 -1 2 C-0.67 1.34 -0.34 0.68 0 0 Z " fill="#240D01" transform="translate(258,100)"/>
<path d="M0 0 C1.98 0.495 1.98 0.495 4 1 C4 2.32 4 3.64 4 5 C2.68 4.67 1.36 4.34 0 4 C0 2.68 0 1.36 0 0 Z " fill="#220C01" transform="translate(232,75)"/>
<path d="M0 0 C1.32 0.66 2.64 1.32 4 2 C3.67 3.32 3.34 4.64 3 6 C1.68 5.34 0.36 4.68 -1 4 C-0.67 2.68 -0.34 1.36 0 0 Z " fill="#1F0C01" transform="translate(238,69)"/>
<path d="M0 0 C-1.5830577 4.2742558 -4.50568404 6.26531794 -8 9 C-6.68994234 5.06982701 -4.75047804 0 0 0 Z " fill="#EE8B57" transform="translate(361,5)"/>
<path d="M0 0 C1.32 0.66 2.64 1.32 4 2 C4 3.32 4 4.64 4 6 C0.125 4.25 0.125 4.25 -1 2 C-0.67 1.34 -0.34 0.68 0 0 Z " fill="#170801" transform="translate(241,117)"/>
<path d="M0 0 C0.99 0 1.98 0 3 0 C3.66 1.32 4.32 2.64 5 4 C4.01 4.66 3.02 5.32 2 6 C1.01 5.01 0.02 4.02 -1 3 C-0.67 2.01 -0.34 1.02 0 0 Z " fill="#1C0A01" transform="translate(252,106)"/>
<path d="M0 0 C1.32 0.99 2.64 1.98 4 3 C3.67 3.99 3.34 4.98 3 6 C1.68 5.34 0.36 4.68 -1 4 C-1 1 -1 1 0 0 Z " fill="#100600" transform="translate(216,91)"/>
<path d="M0 0 C1.32 0.66 2.64 1.32 4 2 C4 2.99 4 3.98 4 5 C3.01 5 2.02 5 1 5 C0.34 3.68 -0.32 2.36 -1 1 C-0.67 0.67 -0.34 0.34 0 0 Z " fill="#150701" transform="translate(221,86)"/>
<path d="M0 0 C1.32 0.99 2.64 1.98 4 3 C3.67 3.99 3.34 4.98 3 6 C1.68 5.34 0.36 4.68 -1 4 C-1 1 -1 1 0 0 Z " fill="#140701" transform="translate(227,80)"/>
<path d="M0 0 C1.32 0.66 2.64 1.32 4 2 C3.67 3.32 3.34 4.64 3 6 C1.68 5.01 0.36 4.02 -1 3 C-0.67 2.01 -0.34 1.02 0 0 Z " fill="#100600" transform="translate(210,97)"/>
<path d="M0 0 C1.32 0.33 2.64 0.66 4 1 C4.33 2.32 4.66 3.64 5 5 C3.68 4.67 2.36 4.34 1 4 C0.67 2.68 0.34 1.36 0 0 Z " fill="#130701" transform="translate(263,95)"/>
<path d="M0 0 C1.32 0.33 2.64 0.66 4 1 C4 2.32 4 3.64 4 5 C2.68 4.34 1.36 3.68 0 3 C0 2.01 0 1.02 0 0 Z " fill="#0F0500" transform="translate(235,123)"/>
<path d="M0 0 C1.32 0.66 2.64 1.32 4 2 C4 2.99 4 3.98 4 5 C2.68 4.67 1.36 4.34 0 4 C0 2.68 0 1.36 0 0 Z " fill="#0D0400" transform="translate(247,112)"/>
</svg>
